<?xml version="1.0" standalone="no"?>
<!DOCTYPE svg PUBLIC "-//W3C//DTD SVG 20010904//EN"
 "http://www.w3.org/TR/2001/REC-SVG-20010904/DTD/svg10.dtd">
<svg version="1.0" xmlns="http://www.w3.org/2000/svg"
 width="764.000000pt" height="564.000000pt" viewBox="0 0 764.000000 564.000000"
 preserveAspectRatio="xMidYMid meet">

<g transform="translate(0.000000,564.000000) scale(0.100000,-0.100000)"
fill="#fb503b" stroke="none">
<path d="M1810 4974 c-85 -8 -382 -32 -660 -54 -278 -23 -521 -45 -541 -50
-39 -11 -63 -32 -73 -67 -16 -52 7 -105 639 -1472 720 -1559 773 -1672 799
-1712 34 -50 105 -96 164 -105 25 -4 75 -1 111 5 36 7 369 91 739 187 370 96
677 172 682 169 13 -8 70 -113 70 -129 0 -34 -24 -26 -62 18 -22 26 -42 45
-45 43 -3 -4 -43 -222 -43 -240 0 -5 -28 7 -63 26 l-63 36 22 -124 c11 -69 19
-126 17 -128 -2 -2 -28 0 -59 6 -30 5 -57 7 -60 4 -3 -3 20 -52 51 -110 l56
-105 -51 -11 c-28 -6 -60 -11 -71 -11 -14 0 9 -26 76 -87 52 -47 95 -89 95
-92 0 -4 -25 -19 -56 -35 -31 -15 -53 -31 -48 -35 5 -4 55 -27 112 -50 56 -24
102 -46 102 -49 0 -4 -19 -25 -42 -49 -23 -23 -39 -45 -36 -48 3 -3 50 -8 104
-11 54 -3 109 -7 122 -10 21 -4 21 -6 8 -32 -31 -60 -45 -101 -33 -97 7 2 55
16 107 30 52 14 103 28 113 31 17 5 18 0 11 -67 l-7 -72 104 71 c57 39 106 69
110 66 3 -2 12 -31 18 -64 7 -33 14 -60 16 -60 3 0 30 34 61 75 31 41 59 75
63 74 3 0 24 -28 46 -62 58 -88 101 -120 174 -125 52 -4 82 4 267 66 261 87
1404 495 1905 680 289 107 297 113 257 189 -13 24 -196 276 -408 560 -212 284
-393 528 -402 543 l-18 27 408 108 c224 59 442 118 484 132 91 28 103 46 66
97 -63 87 -731 909 -787 968 -74 79 -99 89 -194 75 -95 -13 -129 4 -66 34 l31
15 -61 33 c-33 17 -61 36 -61 41 0 5 12 17 26 27 24 15 25 17 8 24 -11 3 -43
10 -71 14 -58 8 -61 13 -36 52 l17 26 -58 -8 c-33 -4 -66 -9 -74 -12 -11 -5
-14 2 -10 35 l3 41 -63 -34 c-34 -19 -65 -35 -67 -35 -3 0 -5 10 -5 23 -1 51
-16 50 -62 -4 l-46 -53 -16 32 c-9 18 -21 30 -25 28 -5 -3 -19 -33 -31 -66
l-23 -61 -33 32 -34 33 0 -77 c0 -83 -3 -86 -50 -62 -17 9 -30 14 -30 13 0 -2
9 -33 19 -70 l19 -67 -39 -3 -39 -3 26 -38 c14 -21 24 -40 22 -42 -2 -2 -35
-10 -73 -19 -126 -26 -148 -43 -128 -95 5 -14 157 -234 337 -488 179 -255 329
-469 332 -477 4 -11 -40 -25 -193 -61 -1416 -340 -1800 -431 -1808 -428 -6 2
-47 65 -92 141 l-81 137 43 208 c24 115 45 210 48 213 2 2 46 -20 98 -51 52
-30 96 -50 97 -44 2 5 -8 98 -23 205 -15 108 -25 198 -22 201 3 2 51 -5 108
-16 56 -12 104 -19 106 -17 2 2 -37 85 -86 185 -50 99 -91 185 -91 189 0 5 47
15 105 22 58 7 108 16 110 21 3 4 -62 72 -145 151 -82 78 -150 145 -150 148 0
3 45 28 100 55 55 27 97 52 92 56 -4 4 -89 45 -188 91 l-181 84 77 84 c43 47
77 86 76 87 -1 1 -94 11 -206 23 -112 12 -206 22 -208 24 -1 2 19 51 47 109
27 58 44 104 38 102 -35 -12 -401 -94 -404 -91 -2 2 2 46 8 98 6 53 9 103 7
112 -2 12 -44 -10 -177 -94 -96 -60 -176 -108 -179 -106 -2 3 -12 44 -23 93
-11 48 -21 98 -24 111 -5 19 -21 3 -117 -115 -61 -76 -114 -142 -118 -146 -4
-4 -55 72 -113 170 -137 229 -186 302 -218 326 -36 26 -117 29 -309 11z m176
-172 c16 -11 1527 -2623 1532 -2649 3 -16 -2 -25 -19 -33 -30 -13 -1235 -300
-1260 -300 -14 0 -26 16 -43 53 -28 62 -447 929 -975 2016 -210 432 -381 790
-381 797 0 7 4 15 9 18 4 3 237 26 517 50 553 49 584 52 599 54 6 1 15 -2 21
-6z m3780 -908 c19 -9 39 -25 44 -34 9 -16 2 -19 -53 -29 -141 -24 -147 -24
-147 -10 0 24 31 60 64 75 41 17 51 17 92 -2z m-2767 -95 c138 -61 212 -197
189 -345 -8 -55 -41 -134 -56 -134 -8 0 -302 491 -302 505 0 13 122 -5 169
-26z m3265 -91 c27 -25 585 -734 592 -753 3 -6 -1 -16 -8 -22 -14 -11 -777
-203 -808 -203 -13 0 -107 122 -316 408 -163 224 -299 414 -301 423 -3 9 -1
19 4 22 4 3 150 30 323 61 173 30 344 62 380 70 91 20 106 19 134 -6z m-254
-1280 c101 -132 680 -932 680 -939 0 -5 -10 -15 -22 -23 -13 -8 -322 -116
-688 -239 -366 -124 -813 -276 -993 -337 l-329 -113 -25 19 c-14 11 -52 62
-83 114 -126 209 -593 1013 -597 1029 -4 14 59 33 454 136 252 65 701 183 998
261 297 78 546 142 553 143 6 0 30 -23 52 -51z m-1952 -1237 c45 -79 82 -147
82 -152 0 -16 -73 -9 -115 10 -95 44 -138 147 -100 238 19 45 36 66 45 56 4
-4 44 -73 88 -152z"/>
</g>
</svg>
