<?xml version="1.0" encoding="UTF-8" standalone="no"?>
<!DOCTYPE svg PUBLIC "-//W3C//DTD SVG 1.1//EN" "http://www.w3.org/Graphics/SVG/1.1/DTD/svg11.dtd">
<svg version="1.1" xmlns="http://www.w3.org/2000/svg" xmlns:xlink="http://www.w3.org/1999/xlink" preserveAspectRatio="xMidYMid meet" viewBox="0 0 1200 400" width="1200" height="400">
  <defs>
    <radialGradient id="grad1" cx="50%" cy="50%" r="50%" fx="50%" fy="50%">
      <stop offset="0%" style="stop-color:rgb(255,255,255);stop-opacity:1" />
      <stop offset="100%" style="stop-color:rgb(255,255,255);stop-opacity:0" />
    </radialGradient>
  </defs>

  <ellipse fill="url(#grad1)" transform="translate(106.68, -375) rotate(15) " ry="750" rx="15" />
  <ellipse fill="url(#grad1)" transform="translate(121.77, -300) rotate(15) " ry="600" rx="12" />
  <ellipse fill="url(#grad1)" transform="translate(117.44, -200) rotate(15) " ry="400" rx="8" />
  <ellipse fill="url(#grad1)" transform="translate(200, -300) rotate(15) " ry="600" rx="12" />
  <ellipse fill="url(#grad1)" transform="translate(205.26, -240) rotate(15) " ry="480" rx="9.6" />
  <ellipse fill="url(#grad1)" transform="translate(260, -275) rotate(15) " ry="550" rx="11" />
  <ellipse fill="url(#grad1)" transform="translate(273.54, -225) rotate(15) " ry="450" rx="9" />
  <ellipse fill="url(#grad1)" transform="translate(328.11, -350) rotate(15) " ry="700" rx="14" />
  <ellipse fill="url(#grad1)" transform="translate(316.59, -150) rotate(15) " ry="300" rx="6" />
  <ellipse fill="url(#grad1)" transform="translate(341.75, -210) rotate(15) " ry="420" rx="8.4" />
  <ellipse fill="url(#grad1)" transform="translate(418.31, -300) rotate(15) " ry="600" rx="12" />
  <ellipse fill="url(#grad1)" transform="translate(425.29, -125) rotate(15) " ry="250" rx="5" />

  <ellipse fill="url(#grad1)" transform="translate(506.68, -375) rotate(15) " ry="750" rx="15" />
  <ellipse fill="url(#grad1)" transform="translate(521.77, -300) rotate(15) " ry="600" rx="12" />
  <ellipse fill="url(#grad1)" transform="translate(517.44, -200) rotate(15) " ry="400" rx="8" />
  <ellipse fill="url(#grad1)" transform="translate(600, -300) rotate(15) " ry="600" rx="12" />
  <ellipse fill="url(#grad1)" transform="translate(605.26, -240) rotate(15) " ry="480" rx="9.6" />
  <ellipse fill="url(#grad1)" transform="translate(660, -275) rotate(15) " ry="550" rx="11" />
  <ellipse fill="url(#grad1)" transform="translate(673.54, -225) rotate(15) " ry="450" rx="9" />
  <ellipse fill="url(#grad1)" transform="translate(728.11, -350) rotate(15) " ry="700" rx="14" />
  <ellipse fill="url(#grad1)" transform="translate(716.59, -150) rotate(15) " ry="300" rx="6" />
  <ellipse fill="url(#grad1)" transform="translate(741.75, -210) rotate(15) " ry="420" rx="8.4" />
  <ellipse fill="url(#grad1)" transform="translate(818.31, -300) rotate(15) " ry="600" rx="12" />
  <ellipse fill="url(#grad1)" transform="translate(825.29, -125) rotate(15) " ry="250" rx="5" />

  <ellipse fill="url(#grad1)" transform="translate(906.68, -375) rotate(15) " ry="750" rx="15" />
  <ellipse fill="url(#grad1)" transform="translate(921.77, -300) rotate(15) " ry="600" rx="12" />
  <ellipse fill="url(#grad1)" transform="translate(917.44, -200) rotate(15) " ry="400" rx="8" />
  <ellipse fill="url(#grad1)" transform="translate(1000, -300) rotate(15) " ry="600" rx="12" />
  <ellipse fill="url(#grad1)" transform="translate(1005.26, -240) rotate(15) " ry="480" rx="9.6" />
  <ellipse fill="url(#grad1)" transform="translate(1060, -275) rotate(15) " ry="550" rx="11" />
  <ellipse fill="url(#grad1)" transform="translate(1073.54, -225) rotate(15) " ry="450" rx="9" />
  <ellipse fill="url(#grad1)" transform="translate(1128.11, -350) rotate(15) " ry="700" rx="14" />
  <ellipse fill="url(#grad1)" transform="translate(1116.59, -150) rotate(15) " ry="300" rx="6" />
  <ellipse fill="url(#grad1)" transform="translate(1141.75, -210) rotate(15) " ry="420" rx="8.4" />
  <ellipse fill="url(#grad1)" transform="translate(1218.31, -300) rotate(15) " ry="600" rx="12" />
  <ellipse fill="url(#grad1)" transform="translate(1225.29, -125) rotate(15) " ry="250" rx="5" />
</svg>